<svg width="20" height="20" viewBox="0 0 20 20" fill="none" xmlns="http://www.w3.org/2000/svg">
<path d="M11.6667 9.99992L8.75 11.6666V8.33325L11.6667 9.99992Z" fill="white" stroke="white" stroke-width="1.25" stroke-linecap="round" stroke-linejoin="round"/>
<path d="M1.66669 10.5891V9.40992C1.66669 6.99742 1.66669 5.79075 2.42085 5.01492C3.17585 4.23825 4.36419 4.20492 6.74002 4.13742C7.86502 4.10575 9.01502 4.08325 10 4.08325C10.9842 4.08325 12.1342 4.10575 13.26 4.13742C15.6359 4.20492 16.8242 4.23825 17.5784 5.01492C18.3334 5.79075 18.3334 6.99825 18.3334 9.40992V10.5891C18.3334 13.0024 18.3334 14.2083 17.5792 14.9849C16.8242 15.7608 15.6367 15.7949 13.26 15.8616C12.135 15.8941 10.985 15.9166 10 15.9166C8.91315 15.9133 7.82638 15.895 6.74002 15.8616C4.36419 15.7949 3.17585 15.7616 2.42085 14.9849C1.66669 14.2083 1.66669 13.0016 1.66669 10.5899V10.5891Z" stroke="white" stroke-width="1.25"/>
<path d="M4.61002 4.33925C6.9196 4.22425 8.71585 4.16675 9.99919 4.16675C11.2825 4.16675 13.0796 4.22425 15.3904 4.33966C15.9951 4.36984 16.5683 4.61844 17.0036 5.0393C17.4388 5.46015 17.7066 6.02466 17.7571 6.628C17.8629 7.89216 17.9159 9.0055 17.9159 9.96841C17.9159 10.943 17.8617 12.0717 17.7534 13.3551C17.7031 13.9515 17.4405 14.5101 17.0133 14.9293C16.5861 15.3485 16.0227 15.6006 15.4254 15.6397C13.45 15.7688 11.6413 15.8334 9.99919 15.8334C8.35752 15.8334 6.54919 15.7688 4.57502 15.6397C3.97796 15.6006 3.41471 15.3487 2.98756 14.9298C2.56041 14.5108 2.29768 13.9525 2.2471 13.3563C2.13752 12.0634 2.08252 10.9338 2.08252 9.96841C2.08252 9.01425 2.13627 7.9005 2.24294 6.62675C2.29364 6.02356 2.56146 5.45925 2.99671 5.03857C3.43195 4.61789 4.00504 4.3694 4.6096 4.33925H4.61002Z" stroke="white" stroke-width="1.66667" stroke-linejoin="round"/>
<path d="M8.75 8.17085V11.8358C8.74997 11.9004 8.76744 11.9637 8.80055 12.0191C8.83365 12.0745 8.88115 12.1199 8.938 12.1505C8.99485 12.1811 9.05892 12.1957 9.1234 12.1927C9.18787 12.1898 9.25034 12.1694 9.30417 12.1338L12.0529 10.3171C12.102 10.2847 12.1424 10.2407 12.1704 10.1889C12.1984 10.1372 12.2132 10.0793 12.2134 10.0205C12.2137 9.96163 12.1994 9.90364 12.1718 9.85166C12.1443 9.79968 12.1043 9.75531 12.0554 9.72251L9.30625 7.87418C9.25252 7.83808 9.18999 7.81725 9.12534 7.81394C9.06069 7.81063 8.99636 7.82496 8.93923 7.85539C8.88209 7.88582 8.8343 7.93121 8.80097 7.9867C8.76764 8.04219 8.75002 8.1057 8.75 8.17043V8.17085Z" stroke="white" stroke-width="1.42875" stroke-linejoin="round"/>
</svg>
